# xmcd
# 
# Track frame offsets:
#     150
#     22638
#     39831
#     61872
#     90823
#     106184
#     127626
#     146358
#     166843
#     192731
#     212066
#     232916
#     248385
#     268232
#     286610
#     307760
#     322194
# 
# Disc length: 4510
# 
# Revision: 1
# Processed by: cddbd v1.5.2PL0 Copyright (c) Steve Scherf et al.
# Submitted via: fre:ac v1.0.31
# 
DISCID=c8119c11
DTITLE=Various Artist - Cold Hands Seduction Vol. 142 - 06-2013
DYEAR=2013
DGENRE=Future Pop
TTITLE0=Covenant - I Scan The Surface
TTITLE1=Filter - We Hate It When You Get What You Want
TTITLE2=Skinny Puppy - ParagUn
TTITLE3=The Eden House - The Tempest
TTITLE4=Xotox - Sla Tillbaka
TTITLE5=X-Fusion - Sneaky Lies
TTITLE6=Pouppée Fabrikk - Bring Back The Ways Of Old (12 Inch Version)
TTITLE7=A.T.Mödell - Reluctant Hero
TTITLE8=Implant - The City
TTITLE9=Voodoma - Virus
TTITLE10=AYRIA - Hunger
TTITLE11=Helalyn Flowers - Before The Sunshine
TTITLE12=EFFTER - Antropophobic
TTITLE13=Johnny Flesh and The Redneck Zombies - Hellbilly Army
TTITLE14=Felsenreich - The Earth
TTITLE15=DoNotDream - Jahr fuer Jahr
TTITLE16=Saints Of Ruin - Blood Moon
EXTD=by Toma
EXTT0=
EXTT1=
EXTT2=
EXTT3=
EXTT4=
EXTT5=
EXTT6=
EXTT7=
EXTT8=
EXTT9=
EXTT10=
EXTT11=
EXTT12=
EXTT13=
EXTT14=
EXTT15=
EXTT16=
PLAYORDER=
